<?xml version="1.0" standalone="no"?>
<!DOCTYPE svg PUBLIC "-//W3C//DTD SVG 20010904//EN"
 "http://www.w3.org/TR/2001/REC-SVG-20010904/DTD/svg10.dtd">
<svg version="1.0" xmlns="http://www.w3.org/2000/svg"
 width="300.000000pt" height="300.000000pt" viewBox="0 0 300.000000 300.000000"
 preserveAspectRatio="xMidYMid meet">
<metadata>
Created by potrace 1.10, written by Peter Selinger 2001-2011
</metadata>
<g transform="translate(0.000000,300.000000) scale(0.100000,-0.100000)"
fill="#000000" stroke="none">
<path d="M757 1918 c-38 -29 -153 -323 -187 -480 -11 -50 -11 -60 4 -82 19
-30 56 -34 78 -8 8 9 23 50 33 90 l17 72 93 0 c51 0 100 2 108 6 14 5 25 -22
46 -125 10 -47 23 -61 57 -61 38 0 56 32 48 87 -4 26 -11 58 -15 71 -7 19 -4
28 18 46 24 21 26 27 18 52 -9 24 -17 30 -48 32 -20 2 -37 8 -37 14 0 23 -83
184 -117 227 -44 56 -62 71 -83 71 -9 0 -24 -6 -33 -12z m74 -70 c17 -18 53
-80 82 -137 39 -78 60 -109 84 -124 32 -18 32 -19 18 -48 -12 -22 -14 -46 -9
-97 8 -80 -6 -75 -30 10 -17 60 -45 95 -84 105 -13 3 -59 3 -103 1 -93 -5
-122 -25 -140 -92 -18 -70 -20 -76 -30 -76 -23 0 0 106 63 280 31 85 71 174
90 198 16 19 26 15 59 -20z"/>
<path d="M765 1774 c-23 -25 -55 -102 -55 -134 0 -58 127 -84 175 -36 24 24
24 26 10 67 -26 74 -69 129 -100 129 -3 0 -17 -12 -30 -26z m78 -79 l37 -75
-71 0 c-64 0 -70 2 -65 18 32 85 52 132 56 132 3 0 22 -34 43 -75z"/>
<path d="M1847 1912 c-46 -50 -173 -396 -184 -498 -6 -57 11 -84 51 -84 33 0
42 15 63 100 l19 75 105 5 c57 3 107 3 112 0 4 -4 14 -40 23 -80 18 -86 26
-100 64 -100 51 0 65 48 40 141 -10 37 -9 43 9 56 23 16 28 62 9 81 -7 7 -23
12 -37 12 -23 0 -32 13 -77 108 -81 167 -152 234 -197 184z m78 -62 c16 -16
52 -76 80 -132 36 -73 61 -109 83 -123 34 -22 39 -40 18 -67 -10 -14 -11 -31
-3 -73 5 -31 7 -59 4 -62 -12 -12 -24 9 -36 60 -7 34 -21 63 -37 78 -23 22
-34 24 -123 24 -123 0 -144 -11 -167 -93 -17 -60 -29 -80 -40 -69 -16 16 80
317 136 427 35 69 44 72 85 30z"/>
<path d="M1861 1774 c-11 -14 -29 -50 -41 -80 -30 -82 -6 -114 88 -114 38 0
53 5 70 23 27 29 27 40 1 97 -22 49 -65 100 -85 100 -7 0 -22 -12 -33 -26z
m78 -81 c17 -34 31 -64 31 -67 0 -3 -31 -6 -69 -6 l-70 0 31 76 c17 41 34 71
39 67 4 -4 22 -36 38 -70z"/>
<path d="M265 1906 c-73 -23 -142 -65 -178 -106 -90 -105 -80 -289 21 -393 59
-61 106 -81 187 -81 80 0 135 23 179 74 23 28 26 40 26 106 0 41 4 74 9 74 19
0 23 41 7 65 -16 24 -20 25 -141 25 -134 0 -155 -7 -155 -55 0 -37 35 -55 107
-55 l63 0 0 -51 c0 -48 -2 -51 -35 -65 -19 -7 -46 -14 -60 -14 -35 0 -99 34
-124 66 -51 64 -51 171 -1 228 39 44 141 90 183 82 96 -18 103 -18 120 -1 70
70 -79 142 -208 101z m138 -40 c15 -4 27 -11 27 -17 0 -6 -21 -8 -59 -3 -51 5
-66 3 -120 -21 -107 -48 -169 -138 -158 -228 8 -59 21 -89 58 -131 80 -92 195
-101 258 -20 29 36 28 100 -1 131 -17 18 -32 23 -75 23 -41 0 -53 3 -53 15 0
13 15 15 98 13 91 -3 97 -4 94 -23 -2 -11 -6 -52 -10 -92 -9 -88 -32 -117
-110 -139 -101 -30 -206 18 -256 117 -33 68 -37 179 -7 237 36 70 120 127 210
142 46 7 52 7 104 -4z"/>
<path d="M1375 1911 c-103 -27 -181 -81 -221 -153 -26 -47 -29 -63 -29 -138 0
-65 5 -96 21 -131 78 -169 277 -220 410 -105 39 33 39 34 40 111 1 42 7 82 13
88 18 18 13 65 -8 77 -11 5 -70 10 -131 10 -128 0 -150 -8 -150 -52 0 -44 24
-57 103 -58 l67 0 0 -45 c0 -40 -4 -47 -32 -65 -60 -36 -130 -20 -185 43 -36
41 -48 87 -40 155 4 40 12 53 51 89 26 23 69 49 98 59 44 14 58 15 105 3 67
-16 88 -6 88 41 0 46 -36 71 -111 75 -32 2 -72 1 -89 -4z m145 -58 c13 -13 8
-14 -42 -8 -147 18 -288 -95 -288 -232 0 -68 42 -148 98 -187 109 -77 251 -19
237 98 -6 54 -26 70 -91 76 -88 8 -64 25 42 28 l96 3 -5 -43 c-4 -24 -9 -69
-13 -101 -5 -49 -11 -61 -38 -81 -122 -93 -296 -25 -343 133 -30 105 1 215 78
271 85 61 227 84 269 43z"/>
<path d="M2242 1893 c-20 -17 -21 -29 -23 -243 -1 -124 -1 -239 0 -257 2 -58
16 -63 174 -63 162 0 190 8 195 56 5 51 -14 59 -147 55 l-117 -2 4 213 c4 226
2 239 -44 252 -13 4 -29 0 -42 -11z m40 -242 c3 -195 4 -200 27 -225 23 -25
30 -26 123 -26 54 0 98 -4 98 -9 0 -12 -242 -21 -257 -9 -16 13 -19 468 -4
468 6 0 11 -83 13 -199z"/>
<path d="M2667 1892 c-38 -42 -12 -92 47 -92 l26 0 0 -175 0 -175 -29 0 c-55
0 -82 -58 -43 -93 26 -24 217 -24 250 -1 43 30 16 94 -41 94 l-27 0 0 175 0
175 28 0 c31 0 62 27 62 53 0 9 -9 26 -20 37 -18 18 -33 20 -128 20 -93 0
-111 -3 -125 -18z m206 -28 c3 -4 -10 -21 -29 -39 l-34 -32 0 -168 0 -168 34
-32 c19 -18 32 -35 29 -39 -10 -10 -146 -7 -163 4 -11 7 -9 11 12 19 52 20 58
41 58 216 0 175 -6 196 -58 216 -21 8 -23 12 -12 19 17 11 153 14 163 4z"/>
</g>
</svg>
